#!OML:ASF F:\VICON\USERDATA\INSTALL\Justin_Nancy\Justin_Nancy.ASF
:FULLY-SPECIFIED
:DEGREES
1
root 1.6352 17.1731 -31.4859 -0.0533374 1.61946 7.14459
lowerback 6.09002 -1.36269 -7.28204
upperback 1.27194 -2.25665 0.80293
thorax -1.78139 -1.09619 5.0911
lowerneck -15.9183 -2.95891 -8.90043
upperneck 19.9407 -2.88476 4.70295
head 9.09351 -1.52274 2.72943
rclavicle -1.07344e-014 7.95139e-015
rhumerus -36.4737 -22.6524 -72.853
rradius 24.6932
rwrist 13.9708
rhand -14.2118 12.5328
rfingers 7.12502
rthumb 11.9248 -17.1076
lclavicle -1.07344e-014 7.95139e-015
lhumerus -19.6781 -0.796252 86.0078
lradius 35.1675
lwrist -5.65499
lhand 0 0
lfingers 0
lthumb 0 0
rfemur -28.0868 2.27386 10.1426
rtibia 13.1234
rfoot -2.80958 -13.3131
rtoes 0.30248
lfemur 7.21846 -0.596093 -30.719
ltibia 19.2604
lfoot -18.9199 2.69717
ltoes -3.18622
2
root 1.61165 17.1623 -31.3035 0.0302923 2.05666 7.3125
lowerback 6.15943 -1.4831 -7.45336
upperback 1.1726 -2.43765 0.774289
thorax -1.89198 -1.17831 5.17435
lowerneck -15.6391 -2.88755 -8.75996
upperneck 19.5922 -2.83108 4.66315
head 8.91516 -1.48977 2.69659
rclavicle -1.97791e-014 7.95139e-015
rhumerus -37.3574 -24.2345 -71.444
rradius 23.477
rwrist 16.4455
rhand -15.3323 14.9479
rfingers 7.12502
rthumb 10.8443 -14.7521
lclavicle -1.97791e-014 7.95139e-015
lhumerus -19.7409 -1.11606 85.9426
lradius 35.7571
lwrist -5.2836
lhand 0 0
lfingers 0
lthumb 0 0
rfemur -27.0954 3.1054 9.3174
rtibia 10.0124
rfoot -3.07232 -13.7292
rtoes -0.801412
lfemur 8.05696 -0.918426 -30.7377
ltibia 18.7443
lfoot -18.7334 2.33902
ltoes -3.34354
3
root 1.58434 17.1524 -31.1296 0.247694 2.05491 7.29865
lowerback 5.86276 -1.49631 -7.48148
upperback 1.19399 -2.43126 0.81008
thorax -1.7019 -1.18349 5.21497
lowerneck -15.4796 -2.91978 -8.86926
upperneck 19.4181 -2.87978 4.75562
head 8.83317 -1.51049 2.73932
rclavicle 2.42517e-014 2.14687e-014
rhumerus -37.2075 -23.6413 -72.0177
rradius 24.5695
rwrist 13.3804
rhand -14.5291 5.42632
rfingers 7.12502
rthumb 11.6189 -24.2316
lclavicle 2.42517e-014 2.14687e-014
lhumerus -19.5086 -1.42046 85.8917
lradius 36.1833
lwrist -4.89681
lhand -13.3999 30.8444
lfingers 7.12502
lthumb 12.7077 60.4377
rfemur -25.8629 2.66391 9.51478
rtibia 6.28884
rfoot -2.59724 -12.391
rtoes -3.7831
lfemur 8.31544 -1.12162 -30.619
ltibia 19.0172
lfoot -18.8899 2.17899
ltoes -3.10565
4
root 1.56437 17.1323 -30.9485 0.165512 2.38405 7.22286
lowerback 5.83631 -1.60908 -7.34836
upperback 1.31831 -2.56594 0.836487
thorax -1.54302 -1.26131 5.17114
lowerneck -15.5388 -2.98459 -8.93472
upperneck 19.6687 -2.96293 4.79732
head 8.93802 -1.5526 2.75671
rclavicle -3.37934e-015 -3.18055e-015
rhumerus -37.3085 -24.1123 -71.7638
rradius 24.124
rwrist 13.8329
rhand -21.0024 5.32192
rfingers 7.12502
rthumb 5.37205 -24.59
lclavicle -3.37934e-015 -3.18055e-015
lhumerus -19.091 -1.44052 85.8433
lradius 36.2859
lwrist -4.84153
lhand -13.6868 29.007
lfingers 7.12502
lthumb 12.4311 58.6173
rfemur -22.7 1.90383 9.68755
rtibia 6.99722e-014
rfoot -0.716109 -11.1271
rtoes -5.71284
lfemur 8.95177 -1.63357 -30.4777
ltibia 19.2916
lfoot -18.9317 2.07407
ltoes -3.30249
5
root 1.54496 17.1251 -30.7627 0.0914748 2.68449 7.03629
lowerback 5.97886 -1.6723 -7.14754
upperback 1.32599 -2.64688 0.925697
thorax -1.60823 -1.29999 5.16173
lowerneck -15.8411 -3.01178 -8.90135
upperneck 20.1896 -2.97798 4.73226
head 9.1729 -1.56742 2.7312
rclavicle 5.56597e-015 -1.19271e-014
rhumerus -37.6691 -24.1393 -71.6114
rradius 23.9943
rwrist 13.2709
rhand -15.5761 10.8718
rfingers 7.12502
rthumb 10.6091 -18.8404
lclavicle 5.56597e-015 -1.19271e-014
lhumerus -18.9099 -1.51089 85.8896
lradius 36.3635
lwrist -4.82093
lhand -13.5887 28.435
lfingers 7.12502
lthumb 12.5256 58.0396
rfemur -22.5621 1.23266 10.1055
rtibia -2.54444e-014
rfoot -1.58937 -10.3811
rtoes -5.47103
lfemur 9.35229 -1.87309 -30.1359
ltibia 19.6847
lfoot -18.7828 1.68346
ltoes -4.04515
6
root 1.52229 17.1239 -30.5789 0.166611 2.85336 7.01026
lowerback 5.97137 -1.6873 -7.1594
upperback 1.3115 -2.66595 0.999521
thorax -1.61222 -1.309 5.24688
lowerneck -16.0682 -3.02013 -8.91636
upperneck 20.1556 -2.97415 4.78077
head 9.20338 -1.55822 2.74947
rclavicle -5.66536e-015 0
rhumerus -38.0518 -24.5502 -71.1203
rradius 23.6028
rwrist 12.926
rhand -13.4475 14.8312
rfingers 7.12502
rthumb 12.6618 -14.765
lclavicle -5.66536e-015 0
lhumerus -18.9476 -1.63726 85.9998
lradius 36.8059
lwrist -4.70591
lhand -13.3962 29.3995
lfingers 7.12502
lthumb 12.7112 58.9927
rfemur -22.4246 0.695964 10.4236
rtibia -7.63333e-014
rfoot -1.10761 -9.75222
rtoes -6.39033
lfemur 9.64209 -2.32525 -30.0104
ltibia 20.02
lfoot -18.4491 1.27675
ltoes -2.96327
7
root 1.49948 17.1001 -30.397 0.134441 2.84515 6.89364
lowerback 5.95875 -1.63492 -7.07011
upperback 1.36073 -2.58676 1.06718
thorax -1.56613 -1.27306 5.26083
lowerneck -15.9109 -3.07671 -8.81182
upperneck 19.7578 -3.06689 4.70094
head 9.04109 -1.59871 2.68866
rclavicle 1.93815e-014 1.59028e-014
rhumerus -38.3478 -25.3672 -70.4422
rradius 23.1611
rwrist 13.1472
rhand -13.3122 13.9396
rfingers 7.12502
rthumb 12.7922 -15.6485
lclavicle 1.93815e-014 1.59028e-014
lhumerus -18.8309 -1.65367 86.0817
lradius 37.0199
lwrist -4.58339
lhand -13.1312 30.4407
lfingers 7.12502
lthumb 12.9668 60.0177
rfemur -22.1411 0.373341 10.8817
rtibia -8.5875e-014
rfoot 0.537789 -9.01547
rtoes -6.55352
lfemur 10.2881 -3.15219 -29.9581
ltibia 20.2852
lfoot -17.9327 1.516
ltoes -2.32139
8
root 1.47526 17.0746 -30.2124 0.0507393 2.68344 6.88879
lowerback 5.93365 -1.56705 -7.10781
upperback 1.42521 -2.49389 1.11202
thorax -1.49446 -1.23139 5.321
lowerneck -15.9478 -2.99312 -8.83449
upperneck 20.003 -2.95807 4.7489
head 9.12517 -1.54712 2.72572
rclavicle 4.96962e-016 3.18055e-015
rhumerus -38.7419 -26.5361 -69.4041
rradius 22.8571
rwrist 13.7397
rhand -11.768 12.8269
rfingers 7.12502
rthumb 14.2806 -16.6621
lclavicle 4.96962e-016 3.18055e-015
lhumerus -18.6709 -1.60445 86.1182
lradius 37.0631
lwrist -4.61651
lhand -12.7971 31.4971
lfingers 7.12502
lthumb 13.2888 61.0534
rfemur -24.2957 0.257538 11.313
rtibia 5.02139
rfoot -0.267095 -8.27268
rtoes -4.95558
lfemur 10.9259 -3.18843 -29.9542
ltibia 20.477
lfoot -17.3954 2.02824
ltoes -7.5989
9
root 1.45107 17.0694 -30.0201 -0.0321039 2.47538 6.80266
lowerback 5.93239 -1.49183 -7.03818
upperback 1.41426 -2.38862 1.17625
thorax -1.52044 -1.17774 5.34301
lowerneck -15.8152 -3.14478 -8.87366
upperneck 20.0127 -3.14611 4.63642
head 9.11816 -1.6519 2.66969
rclavicle 1.02374e-014 -1.43125e-014
rhumerus -38.9144 -25.2572 -70.3009
rradius 23.4501
rwrist 14.8296
rhand -14.3606 9.08201
rfingers 7.12502
rthumb 11.7814 -20.5666
lclavicle 1.02374e-014 -1.43125e-014
lhumerus -18.7386 -1.54624 86.1913
lradius 37.224
lwrist -4.84621
lhand -13.0734 30.9805
lfingers 7.12502
lthumb 13.0224 60.554
rfemur -25.6607 0.166761 11.7588
rtibia 8.81597
rfoot -0.700452 -7.55138
rtoes -5.37321
lfemur 11.4719 -3.02614 -29.8075
ltibia 20.7083
lfoot -16.9465 2.37631
ltoes -12.9399
10
root 1.42362 17.0618 -29.8246 -0.123658 2.11012 6.57923
lowerback 6.17408 -1.60084 -6.96097
upperback 0.920597 -2.55487 1.48533
thorax -2.13451 -1.22234 5.65674
lowerneck -14.5 -3.01009 -9.74191
upperneck 20.4621 -2.90831 4.73862
head 9.03251 -1.61981 2.89221
rclavicle 1.82882e-014 -3.18055e-015
rhumerus -39.6172 -24.1386 -69.8215
rradius 22.95
rwrist 15.136
rhand -14.881 9.8235
rfingers 7.12502
rthumb 11.2795 -19.8532
lclavicle 1.82882e-014 -3.18055e-015
lhumerus -19.9493 -0.470455 86.3384
lradius 37.4636
lwrist -5.18286
lhand -13.4639 30.2529
lfingers 7.12502
lthumb 12.646 59.8501
rfemur -26.4807 0.22032 12.3439
rtibia 11.5951
rfoot -0.806303 -6.99277
rtoes -6.53405
lfemur 12.0893 -3.27521 -29.6566
ltibia 21.0077
lfoot -16.4658 2.63003
ltoes -15.1623
11
root 1.39265 17.0543 -29.6252 -0.30014 1.79377 6.40351
lowerback 6.21531 -1.56207 -6.9634
upperback 0.821115 -2.50524 1.64573
thorax -2.26116 -1.18929 5.82812
lowerneck -13.8961 -2.88777 -9.74767
upperneck 19.908 -2.75418 4.57948
head 8.71794 -1.56214 2.8534
rclavicle -3.8763e-015 -1.11319e-014
rhumerus -40.1919 -24.278 -69.1634
rradius 22.2903
rwrist 16.504
rhand -16.1722 11.6286
rfingers 7.12502
rthumb 10.034 -18.1122
lclavicle -3.8763e-015 -1.11319e-014
lhumerus -20.4282 -0.0510899 86.3975
lradius 37.5341
lwrist -5.09475
lhand -13.9604 29.8811
lfingers 7.12502
lthumb 12.1673 59.5073
rfemur -26.8442 0.0939489 12.9918
rtibia 13.7256
rfoot -0.502772 -6.32881
rtoes -6.79357
lfemur 12.7984 -3.47765 -29.5258
ltibia 21.2943
lfoot -15.9732 2.33636
ltoes -16.3654
12
root 1.35622 17.0661 -29.4153 -0.39446 2.06215 6.44541
lowerback 6.00845 -1.68902 -7.13337
upperback 0.871562 -2.66862 1.68007
thorax -2.05852 -1.27965 5.96085
lowerneck -13.7979 -2.83174 -9.74408
upperneck 20.1231 -2.68978 4.56955
head 8.76807 -1.53763 2.86023
rclavicle -1.70955e-014 7.95139e-016
rhumerus -40.7464 -25.1316 -68.2567
rradius 21.5843
rwrist 18.8606
rhand -17.1706 12.7215
rfingers 7.12502
rthumb 9.07069 -17.0635
lclavicle -1.70955e-014 7.95139e-016
lhumerus -20.6271 0.172122 86.3737
lradius 37.6355
lwrist -5.07836
lhand -14.3036 29.9907
lfingers 7.12502
lthumb 11.8364 59.6362
rfemur -26.8331 0.544364 12.8931
rtibia 15.2305
rfoot 0.775149 -6.51259
rtoes -7.09873
lfemur 13.2697 -3.92288 -29.4948
ltibia 21.8928
lfoot -15.3113 1.85785
ltoes -17.9801
13
root 1.30581 17.1025 -29.188 -0.361268 3.15325 6.36622
lowerback 5.73589 -2.10509 -7.33718
upperback 0.802951 -3.21453 1.83491
thorax -1.87245 -1.55719 6.26012
lowerneck -13.7853 -2.66465 -9.82771
upperneck 20.4496 -2.45126 4.59555
head 8.86008 -1.43552 2.91588
rclavicle 3.93594e-014 2.38542e-015
rhumerus -41.0136 -24.641 -68.3299
rradius 21.6517
rwrist 19.0204
rhand -17.4377 11.0325
rfingers 7.12502
rthumb 8.81296 -18.7634
lclavicle 3.93594e-014 2.38542e-015
lhumerus -20.9397 0.484044 86.4417
lradius 37.5904
lwrist -4.84523
lhand -14.2509 31.6596
lfingers 7.12502
lthumb 11.8871 61.3021
rfemur -26.6199 1.32902 12.5047
rtibia 16.4376
rfoot 2.19502 -7.60836
rtoes -6.87382
lfemur 13.5451 -4.80343 -29.0711
ltibia 22.7022
lfoot -14.4463 1.09986
ltoes -18.5149
14
root 1.30058 17.1056 -29.0081 -0.454341 1.91532 6.13785
lowerback 6.0325 -1.76736 -6.94261
upperback 0.532673 -2.76417 1.96257
thorax -2.40544 -1.3037 6.16745
lowerneck -13.5817 -2.30937 -9.96523
upperneck 20.6124 -1.97269 4.69693
head 8.84198 -1.21636 3.03359
rclavicle 2.18663e-014 -1.98785e-014
rhumerus -41.33 -23.9958 -68.2972
rradius 21.4047
rwrist 19.3455
rhand -18.4386 10.2948
rfingers 7.12502
rthumb 7.84707 -19.5396
lclavicle 2.18663e-014 -1.98785e-014
lhumerus -21.7115 0.992009 86.6109
lradius 37.6619
lwrist -4.38553
lhand -12.2913 34.9913
lfingers 7.12502
lthumb 13.7763 64.5151
rfemur -27.1516 1.80488 12.9178
rtibia 17.4047
rfoot 3.74052 -6.15474
rtoes -5.27456
lfemur 13.4902 -4.50275 -29.2277
ltibia 23.774
lfoot -13.0932 1.66358
ltoes -19.1108
15
root 1.28005 17.1178 -28.8083 -0.583609 1.14282 5.82944
lowerback 6.15903 -1.47214 -6.48752
upperback 0.442759 -2.34972 1.97258
thorax -2.65275 -1.0886 5.89907
lowerneck -13.5441 -2.43034 -9.74201
upperneck 20.4132 -2.15357 4.51909
head 8.77726 -1.29905 2.91094
rclavicle 3.03644e-014 -1.51076e-014
rhumerus -41.6261 -24.6831 -67.8317
rradius 20.8911
rwrist 20.4097
rhand -18.8818 9.72249
rfingers 7.12502
rthumb 7.41929 -20.1274
lclavicle 3.03644e-014 -1.51076e-014
lhumerus -22.3434 1.10156 86.6199
lradius 37.8274
lwrist -4.40319
lhand -8.96006 40.9838
lfingers 7.12502
lthumb 16.9849 70.2612
rfemur -27.1358 2.06149 13.4719
rtibia 18.0441
rfoot 5.04417 -4.42238
rtoes -4.73584
lfemur 13.363 -4.39704 -29.1494
ltibia 25.207
lfoot -11.845 1.92004
ltoes -21.5738
